<?plantuml 1.2026.1beta2?><svg xmlns="http://www.w3.org/2000/svg" xmlns:xlink="http://www.w3.org/1999/xlink" contentStyleType="text/css" data-diagram-type="CLASS" height="1502px" preserveAspectRatio="none" style="width:1119px;height:1502px;background:#FFFFFF;" version="1.1" viewBox="0 0 1119 1502" width="1119px" zoomAndPan="magnify"><defs/><g><!--cluster models--><g class="cluster" data-qualified-name="models" data-source-line="5" id="ent0002"><path d="M168.84,624.53 L226.6945,624.53 A3.75,3.75 0 0 1 229.1945,627.03 L236.1945,646.8269 L988.84,646.8269 A2.5,2.5 0 0 1 991.34,649.3269 L991.34,1492.53 A2.5,2.5 0 0 1 988.84,1495.03 L168.84,1495.03 A2.5,2.5 0 0 1 166.34,1492.53 L166.34,627.03 A2.5,2.5 0 0 1 168.84,624.53" fill="none" style="stroke:#000000;stroke-width:1.5;"/><line style="stroke:#000000;stroke-width:1.5;" x1="166.34" x2="236.1945" y1="646.8269" y2="646.8269"/><text fill="#000000" font-family="sans-serif" font-size="14" font-weight="bold" lengthAdjust="spacing" textLength="56.8545" x="170.34" y="639.5251">models</text></g><!--cluster services--><g class="cluster" data-qualified-name="services" data-source-line="65" id="ent0008"><path d="M20.84,166.89 L86.6242,166.89 A3.75,3.75 0 0 1 89.1242,169.39 L96.1242,189.1869 L649.84,189.1869 A2.5,2.5 0 0 1 652.34,191.6869 L652.34,573.03 A2.5,2.5 0 0 1 649.84,575.53 L20.84,575.53 A2.5,2.5 0 0 1 18.34,573.03 L18.34,169.39 A2.5,2.5 0 0 1 20.84,166.89" fill="none" style="stroke:#000000;stroke-width:1.5;"/><line style="stroke:#000000;stroke-width:1.5;" x1="18.34" x2="96.1242" y1="189.1869" y2="189.1869"/><text fill="#000000" font-family="sans-serif" font-size="14" font-weight="bold" lengthAdjust="spacing" textLength="64.7842" x="22.34" y="181.8851">services</text></g><!--class User--><g class="entity" data-qualified-name="models.User" data-source-line="7" id="ent0003"><rect fill="#F1F1F1" height="227.2656" rx="2.5" ry="2.5" style="stroke:#181818;stroke-width:0.5;" width="394.9971" x="282.84" y="659.53"/><ellipse cx="460.1335" cy="675.53" fill="#ADD1B2" rx="11" ry="11" style="stroke:#181818;stroke-width:1;"/><path d="M463.1022,681.1706 Q462.5241,681.4675 461.8835,681.6081 Q461.2428,681.7644 460.5397,681.7644 Q458.0397,681.7644 456.7116,680.1238 Q455.3991,678.4675 455.3991,675.3425 Q455.3991,672.2175 456.7116,670.5613 Q458.0397,668.905 460.5397,668.905 Q461.2428,668.905 461.8835,669.0613 Q462.5397,669.2175 463.1022,669.5144 L463.1022,672.2331 Q462.4772,671.655 461.8835,671.3894 Q461.2897,671.1081 460.6647,671.1081 Q459.321,671.1081 458.6335,672.1863 Q457.946,673.2488 457.946,675.3425 Q457.946,677.4363 458.6335,678.5144 Q459.321,679.5769 460.6647,679.5769 Q461.2897,679.5769 461.8835,679.3113 Q462.4772,679.03 463.1022,678.4519 L463.1022,681.1706 Z " fill="#000000"/><text fill="#000000" font-family="sans-serif" font-size="14" lengthAdjust="spacing" textLength="31.9102" x="480.6335" y="680.3767">User</text><line style="stroke:#181818;stroke-width:0.5;" x1="283.84" x2="676.8371" y1="691.53" y2="691.53"/><text fill="#000000" font-family="sans-serif" font-size="14" lengthAdjust="spacing" textLength="104.002" x="288.84" y="708.5251">-userId : String</text><text fill="#000000" font-family="sans-serif" font-size="14" lengthAdjust="spacing" textLength="130.6895" x="288.84" y="724.822">-username : String</text><text fill="#000000" font-family="sans-serif" font-size="14" lengthAdjust="spacing" textLength="127.1621" x="288.84" y="741.1189">-password : String</text><text fill="#000000" font-family="sans-serif" font-size="14" lengthAdjust="spacing" textLength="100.1533" x="288.84" y="757.4157">-name : String</text><text fill="#000000" font-family="sans-serif" font-size="14" lengthAdjust="spacing" textLength="99.0596" x="288.84" y="773.7126">-email : String</text><text fill="#000000" font-family="sans-serif" font-size="14" lengthAdjust="spacing" textLength="160.501" x="288.84" y="790.0095">-phoneNumber : String</text><text fill="#000000" font-family="sans-serif" font-size="14" lengthAdjust="spacing" textLength="115.7598" x="288.84" y="806.3064">-address : String</text><text fill="#000000" font-family="sans-serif" font-size="14" lengthAdjust="spacing" textLength="135.3721" x="288.84" y="822.6032">-loggedIn : boolean</text><line style="stroke:#181818;stroke-width:0.5;" x1="283.84" x2="676.8371" y1="829.905" y2="829.905"/><text fill="#000000" font-family="sans-serif" font-size="14" lengthAdjust="spacing" textLength="382.9971" x="288.84" y="846.9001">+login(username : String, password : String) : boolean</text><text fill="#000000" font-family="sans-serif" font-size="14" lengthAdjust="spacing" textLength="136.5137" x="288.84" y="863.197">+logout() : boolean</text><text fill="#000000" font-family="sans-serif" font-size="14" lengthAdjust="spacing" textLength="202.1182" x="288.84" y="879.4939">+displayPersonalInfo() : void</text></g><!--class Admin--><g class="entity" data-qualified-name="models.Admin" data-source-line="22" id="ent0004"><rect fill="#F1F1F1" height="113.1875" rx="2.5" ry="2.5" style="stroke:#181818;stroke-width:0.5;" width="394.9971" x="181.84" y="1020.83"/><ellipse cx="352.6564" cy="1036.83" fill="#ADD1B2" rx="11" ry="11" style="stroke:#181818;stroke-width:1;"/><path d="M355.6252,1042.4706 Q355.047,1042.7675 354.4064,1042.9081 Q353.7658,1043.0644 353.0627,1043.0644 Q350.5627,1043.0644 349.2345,1041.4238 Q347.922,1039.7675 347.922,1036.6425 Q347.922,1033.5175 349.2345,1031.8613 Q350.5627,1030.205 353.0627,1030.205 Q353.7658,1030.205 354.4064,1030.3613 Q355.0627,1030.5175 355.6252,1030.8144 L355.6252,1033.5331 Q355.0002,1032.955 354.4064,1032.6894 Q353.8127,1032.4081 353.1877,1032.4081 Q351.8439,1032.4081 351.1564,1033.4863 Q350.4689,1034.5488 350.4689,1036.6425 Q350.4689,1038.7363 351.1564,1039.8144 Q351.8439,1040.8769 353.1877,1040.8769 Q353.8127,1040.8769 354.4064,1040.6113 Q355.0002,1040.33 355.6252,1039.7519 L355.6252,1042.4706 Z " fill="#000000"/><text fill="#000000" font-family="sans-serif" font-size="14" lengthAdjust="spacing" textLength="44.8643" x="373.1564" y="1041.6767">Admin</text><line style="stroke:#181818;stroke-width:0.5;" x1="182.84" x2="575.8371" y1="1052.83" y2="1052.83"/><text fill="#000000" font-family="sans-serif" font-size="14" lengthAdjust="spacing" textLength="117.332" x="187.84" y="1069.8251">-adminId : String</text><text fill="#000000" font-family="sans-serif" font-size="14" lengthAdjust="spacing" textLength="143.2744" x="187.84" y="1086.122">-department : String</text><text fill="#000000" font-family="sans-serif" font-size="14" lengthAdjust="spacing" textLength="121.2969" x="187.84" y="1102.4189">-accessLevel : int</text><line style="stroke:#181818;stroke-width:0.5;" x1="182.84" x2="575.8371" y1="1109.7206" y2="1109.7206"/><text fill="#000000" font-family="sans-serif" font-size="14" lengthAdjust="spacing" textLength="382.9971" x="187.84" y="1126.7157">+login(username : String, password : String) : boolean</text></g><!--class Account--><g class="entity" data-qualified-name="models.Account" data-source-line="32" id="ent0006"><rect fill="#F1F1F1" height="227.2656" rx="2.5" ry="2.5" style="stroke:#181818;stroke-width:0.5;" width="363.0186" x="611.83" y="963.8"/><ellipse cx="760.703" cy="979.8" fill="#ADD1B2" rx="11" ry="11" style="stroke:#181818;stroke-width:1;"/><path d="M763.6718,985.4406 Q763.0937,985.7375 762.453,985.8781 Q761.8124,986.0344 761.1093,986.0344 Q758.6093,986.0344 757.2812,984.3938 Q755.9687,982.7375 755.9687,979.6125 Q755.9687,976.4875 757.2812,974.8313 Q758.6093,973.175 761.1093,973.175 Q761.8124,973.175 762.453,973.3313 Q763.1093,973.4875 763.6718,973.7844 L763.6718,976.5031 Q763.0468,975.925 762.453,975.6594 Q761.8593,975.3781 761.2343,975.3781 Q759.8905,975.3781 759.203,976.4563 Q758.5155,977.5188 758.5155,979.6125 Q758.5155,981.7063 759.203,982.7844 Q759.8905,983.8469 761.2343,983.8469 Q761.8593,983.8469 762.453,983.5813 Q763.0468,983.3 763.6718,982.7219 L763.6718,985.4406 Z " fill="#000000"/><text fill="#000000" font-family="sans-serif" font-size="14" lengthAdjust="spacing" textLength="56.7725" x="781.203" y="984.6467">Account</text><line style="stroke:#181818;stroke-width:0.5;" x1="612.83" x2="973.8486" y1="995.8" y2="995.8"/><text fill="#000000" font-family="sans-serif" font-size="14" lengthAdjust="spacing" textLength="172.4639" x="617.83" y="1012.7951">-accountNumber : String</text><text fill="#000000" font-family="sans-serif" font-size="14" lengthAdjust="spacing" textLength="121.502" x="617.83" y="1029.092">-balance : double</text><text fill="#000000" font-family="sans-serif" font-size="14" lengthAdjust="spacing" textLength="150.5615" x="617.83" y="1045.3889">-accountType : String</text><text fill="#000000" font-family="sans-serif" font-size="14" lengthAdjust="spacing" textLength="160.8359" x="617.83" y="1061.6857">-accountStatus : String</text><text fill="#000000" font-family="sans-serif" font-size="14" lengthAdjust="spacing" textLength="192.0557" x="617.83" y="1077.9826">-createdAt : LocalDateTime</text><text fill="#000000" font-family="sans-serif" font-size="14" lengthAdjust="spacing" textLength="152.5918" x="617.83" y="1094.2795">-accountHolder : User</text><text fill="#000000" font-family="sans-serif" font-size="14" lengthAdjust="spacing" textLength="210.7861" x="617.83" y="1110.5764">-operations : List&lt;Operation&gt;</text><line style="stroke:#181818;stroke-width:0.5;" x1="612.83" x2="973.8486" y1="1117.8781" y2="1117.8781"/><text fill="#000000" font-family="sans-serif" font-size="14" lengthAdjust="spacing" textLength="312.4297" x="617.83" y="1134.8732">+addOperation(operation : Operation) : void</text><text fill="#000000" font-family="sans-serif" font-size="14" lengthAdjust="spacing" textLength="351.0186" x="617.83" y="1151.1701">+removeOperation(operationId : String) : boolean</text><text fill="#000000" font-family="sans-serif" font-size="14" lengthAdjust="spacing" textLength="163.4268" x="617.83" y="1167.467">+listOperations() : void</text><text fill="#000000" font-family="sans-serif" font-size="14" lengthAdjust="spacing" textLength="198.8779" x="617.83" y="1183.7639">+displayAccountInfo() : void</text></g><!--class Operation--><g class="entity" data-qualified-name="models.Operation" data-source-line="47" id="ent0007"><rect fill="#F1F1F1" height="210.9688" rx="2.5" ry="2.5" style="stroke:#181818;stroke-width:0.5;" width="236.0342" x="675.32" y="1268.06"/><ellipse cx="754.2512" cy="1284.06" fill="#ADD1B2" rx="11" ry="11" style="stroke:#181818;stroke-width:1;"/><path d="M757.2199,1289.7006 Q756.6418,1289.9975 756.0012,1290.1381 Q755.3605,1290.2944 754.6574,1290.2944 Q752.1574,1290.2944 750.8293,1288.6538 Q749.5168,1286.9975 749.5168,1283.8725 Q749.5168,1280.7475 750.8293,1279.0913 Q752.1574,1277.435 754.6574,1277.435 Q755.3605,1277.435 756.0012,1277.5913 Q756.6574,1277.7475 757.2199,1278.0444 L757.2199,1280.7631 Q756.5949,1280.185 756.0012,1279.9194 Q755.4074,1279.6381 754.7824,1279.6381 Q753.4387,1279.6381 752.7512,1280.7163 Q752.0637,1281.7788 752.0637,1283.8725 Q752.0637,1285.9663 752.7512,1287.0444 Q753.4387,1288.1069 754.7824,1288.1069 Q755.4074,1288.1069 756.0012,1287.8413 Q756.5949,1287.56 757.2199,1286.9819 L757.2199,1289.7006 Z " fill="#000000"/><text fill="#000000" font-family="sans-serif" font-size="14" lengthAdjust="spacing" textLength="69.6719" x="774.7512" y="1288.9067">Operation</text><line style="stroke:#181818;stroke-width:0.5;" x1="676.32" x2="910.3542" y1="1300.06" y2="1300.06"/><text fill="#000000" font-family="sans-serif" font-size="14" lengthAdjust="spacing" textLength="140.6836" x="681.32" y="1317.0551">-operationId : String</text><text fill="#000000" font-family="sans-serif" font-size="14" lengthAdjust="spacing" textLength="162.0049" x="681.32" y="1333.352">-operationType : String</text><text fill="#000000" font-family="sans-serif" font-size="14" lengthAdjust="spacing" textLength="120.4014" x="681.32" y="1349.6489">-amount : double</text><text fill="#000000" font-family="sans-serif" font-size="14" lengthAdjust="spacing" textLength="172.4639" x="681.32" y="1365.9457">-accountNumber : String</text><text fill="#000000" font-family="sans-serif" font-size="14" lengthAdjust="spacing" textLength="138.291" x="681.32" y="1382.2426">-description : String</text><text fill="#000000" font-family="sans-serif" font-size="14" lengthAdjust="spacing" textLength="224.0342" x="681.32" y="1398.5395">-operationDate : LocalDateTime</text><text fill="#000000" font-family="sans-serif" font-size="14" lengthAdjust="spacing" textLength="155.8662" x="681.32" y="1414.8364">-balanceAfter : double</text><line style="stroke:#181818;stroke-width:0.5;" x1="676.32" x2="910.3542" y1="1422.1381" y2="1422.1381"/><text fill="#000000" font-family="sans-serif" font-size="14" lengthAdjust="spacing" textLength="156.9463" x="681.32" y="1439.1332">+isDeposit() : boolean</text><text fill="#000000" font-family="sans-serif" font-size="14" lengthAdjust="spacing" textLength="182.6631" x="681.32" y="1455.4301">+isWithdrawal() : boolean</text><text fill="#000000" font-family="sans-serif" font-size="14" lengthAdjust="spacing" textLength="185.2813" x="681.32" y="1471.727">+displayOperation() : void</text></g><!--class BankService--><g class="entity" data-qualified-name="services.BankService" data-source-line="67" id="ent0009"><rect fill="#F1F1F1" height="357.6406" rx="2.5" ry="2.5" style="stroke:#181818;stroke-width:0.5;" width="602.4199" x="34.13" y="201.89"/><ellipse cx="287.6373" cy="217.89" fill="#ADD1B2" rx="11" ry="11" style="stroke:#181818;stroke-width:1;"/><path d="M290.6061,223.5306 Q290.0279,223.8275 289.3873,223.9681 Q288.7467,224.1244 288.0436,224.1244 Q285.5436,224.1244 284.2154,222.4837 Q282.9029,220.8275 282.9029,217.7025 Q282.9029,214.5775 284.2154,212.9212 Q285.5436,211.265 288.0436,211.265 Q288.7467,211.265 289.3873,211.4212 Q290.0436,211.5775 290.6061,211.8744 L290.6061,214.5931 Q289.9811,214.015 289.3873,213.7494 Q288.7936,213.4681 288.1686,213.4681 Q286.8248,213.4681 286.1373,214.5462 Q285.4498,215.6087 285.4498,217.7025 Q285.4498,219.7962 286.1373,220.8744 Q286.8248,221.9369 288.1686,221.9369 Q288.7936,221.9369 289.3873,221.6712 Q289.9811,221.39 290.6061,220.8119 L290.6061,223.5306 Z " fill="#000000"/><text fill="#000000" font-family="sans-serif" font-size="14" lengthAdjust="spacing" textLength="86.9053" x="308.1373" y="222.7367">BankService</text><line style="stroke:#181818;stroke-width:0.5;" x1="35.13" x2="635.5499" y1="233.89" y2="233.89"/><text fill="#000000" font-family="sans-serif" font-size="14" lengthAdjust="spacing" textLength="277.4707" x="40.13" y="250.8851">-accounts : HashMap&lt;String, Account&gt;</text><text fill="#000000" font-family="sans-serif" font-size="14" lengthAdjust="spacing" textLength="301.8135" x="40.13" y="267.182">-operations : HashMap&lt;String, Operation&gt;</text><text fill="#000000" font-family="sans-serif" font-size="14" lengthAdjust="spacing" textLength="227.3701" x="40.13" y="283.4789">-users : HashMap&lt;String, User&gt;</text><text fill="#000000" font-family="sans-serif" font-size="14" lengthAdjust="spacing" textLength="107.3994" x="40.13" y="299.7757">-admin : Admin</text><line style="stroke:#181818;stroke-width:0.5;" x1="35.13" x2="635.5499" y1="307.0775" y2="307.0775"/><text fill="#000000" font-family="sans-serif" font-size="14" lengthAdjust="spacing" textLength="430.7734" x="40.13" y="324.0726">+adminLogin(username : String, password : String) : boolean</text><text fill="#000000" font-family="sans-serif" font-size="14" lengthAdjust="spacing" textLength="184.29" x="40.13" y="340.3695">+adminLogout() : boolean</text><text fill="#000000" font-family="sans-serif" font-size="14" lengthAdjust="spacing" textLength="254.5156" x="40.13" y="356.6664">+registerUser(user : User) : boolean</text><text fill="#000000" font-family="sans-serif" font-size="14" lengthAdjust="spacing" textLength="393.3809" x="40.13" y="372.9632">+userLogin(username : String, password : String) : User</text><text fill="#000000" font-family="sans-serif" font-size="14" lengthAdjust="spacing" textLength="301.5332" x="40.13" y="389.2601">+addAccount(account : Account) : boolean</text><text fill="#000000" font-family="sans-serif" font-size="14" lengthAdjust="spacing" textLength="360.5342" x="40.13" y="405.557">+deleteAccount(accountNumber : String) : boolean</text><text fill="#000000" font-family="sans-serif" font-size="14" lengthAdjust="spacing" textLength="338.7754" x="40.13" y="421.8539">+addOperation(operation : Operation) : boolean</text><text fill="#000000" font-family="sans-serif" font-size="14" lengthAdjust="spacing" textLength="341.6533" x="40.13" y="438.1507">+deleteOperation(operationId : String) : boolean</text><text fill="#000000" font-family="sans-serif" font-size="14" lengthAdjust="spacing" textLength="577.6709" x="40.13" y="454.4476">+deposit(accountNumber : String, amount : double, description : String) : boolean</text><text fill="#000000" font-family="sans-serif" font-size="14" lengthAdjust="spacing" textLength="590.4199" x="40.13" y="470.7445">+withdraw(accountNumber : String, amount : double, description : String) : boolean</text><text fill="#000000" font-family="sans-serif" font-size="14" lengthAdjust="spacing" textLength="339.4727" x="40.13" y="487.0414">+viewBalance(accountNumber : String) : double</text><text fill="#000000" font-family="sans-serif" font-size="14" lengthAdjust="spacing" textLength="456.3467" x="40.13" y="503.3382">+viewUserBalance(accountNumber : String, user : User) : double</text><text fill="#000000" font-family="sans-serif" font-size="14" lengthAdjust="spacing" textLength="180.7832" x="40.13" y="519.6351">+listAllOperations() : void</text><text fill="#000000" font-family="sans-serif" font-size="14" lengthAdjust="spacing" textLength="447.7129" x="40.13" y="535.932">+listUserOperations(accountNumber : String, user : User) : void</text><text fill="#000000" font-family="sans-serif" font-size="14" lengthAdjust="spacing" textLength="214.7715" x="40.13" y="552.2289">+displayBankStatistics() : void</text></g><!--class Test--><g class="entity" data-qualified-name="Test" data-source-line="94" id="ent0010"><rect fill="#F1F1F1" height="96.8906" rx="2.5" ry="2.5" style="stroke:#181818;stroke-width:0.5;" width="209.7158" x="753.48" y="7"/><ellipse cx="839.1138" cy="23" fill="#ADD1B2" rx="11" ry="11" style="stroke:#181818;stroke-width:1;"/><path d="M842.0825,28.6406 Q841.5044,28.9375 840.8638,29.0781 Q840.2232,29.2344 839.52,29.2344 Q837.02,29.2344 835.6919,27.5938 Q834.3794,25.9375 834.3794,22.8125 Q834.3794,19.6875 835.6919,18.0313 Q837.02,16.375 839.52,16.375 Q840.2232,16.375 840.8638,16.5313 Q841.52,16.6875 842.0825,16.9844 L842.0825,19.7031 Q841.4575,19.125 840.8638,18.8594 Q840.27,18.5781 839.645,18.5781 Q838.3013,18.5781 837.6138,19.6563 Q836.9263,20.7188 836.9263,22.8125 Q836.9263,24.9063 837.6138,25.9844 Q838.3013,27.0469 839.645,27.0469 Q840.27,27.0469 840.8638,26.7813 Q841.4575,26.5 842.0825,25.9219 L842.0825,28.6406 Z " fill="#000000"/><text fill="#000000" font-family="sans-serif" font-size="14" lengthAdjust="spacing" textLength="29.9482" x="859.6138" y="27.8467">Test</text><line style="stroke:#181818;stroke-width:0.5;" x1="754.48" x2="962.1958" y1="39" y2="39"/><text fill="#000000" font-family="sans-serif" font-size="14" lengthAdjust="spacing" textLength="131.6328" x="759.48" y="55.9951">-scanner : Scanner</text><text fill="#000000" font-family="sans-serif" font-size="14" lengthAdjust="spacing" textLength="191.7617" x="759.48" y="72.292">-bankService : BankService</text><line style="stroke:#181818;stroke-width:0.5;" x1="754.48" x2="962.1958" y1="79.5938" y2="79.5938"/><text fill="#000000" font-family="sans-serif" font-size="14" lengthAdjust="spacing" textLength="197.7158" x="759.48" y="96.5889">+main(args : String[]) : void</text></g><!--reverse link User to Admin--><g class="link" data-entity-1="ent0003" data-entity-2="ent0004" data-link-type="extension" data-source-line="30" id="lnk5"><path codeLine="30" d="M436.8855,904.2222 C421.6455,949.8322 410.45,983.33 397.96,1020.71" fill="none" id="User-backto-Admin" style="stroke:#181818;stroke-width:1;"/><polygon fill="none" points="442.59,887.15,431.1948,902.3207,442.5763,906.1237,442.59,887.15" style="stroke:#181818;stroke-width:1;"/></g><!--link User to Account--><g class="link" data-entity-1="ent0003" data-entity-2="ent0006" data-link-type="association" data-source-line="103" id="lnk11"><path codeLine="103" d="M597.33,887.15 C623.12,912.05 650.44,938.43 676.23,963.33" fill="none" id="User-Account" style="stroke:#181818;stroke-width:1;"/><polygon fill="#000000" points="644.937,928.8394,640.4713,920.4424,636.3886,924.671,644.937,928.8394" style="stroke:#000000;stroke-width:1;"/><text fill="#000000" font-family="sans-serif" font-size="13" lengthAdjust="spacing" textLength="33.5981" x="650.34" y="929.8669">owns</text><text fill="#000000" font-family="sans-serif" font-size="13" lengthAdjust="spacing" textLength="8.271" x="596.5772" y="907.0039">1</text><text fill="#000000" font-family="sans-serif" font-size="13" lengthAdjust="spacing" textLength="23.0356" x="644.9921" y="952.611">0..*</text></g><!--link Account to Operation--><g class="link" data-entity-1="ent0006" data-entity-2="ent0007" data-link-type="association" data-source-line="104" id="lnk12"><path codeLine="104" d="M793.34,1191.3 C793.34,1216.41 793.34,1242.93 793.34,1267.7" fill="none" id="Account-Operation" style="stroke:#181818;stroke-width:1;"/><polygon fill="#000000" points="798.34,1234.6264,801.2789,1225.5813,795.4011,1225.5813,798.34,1234.6264" style="stroke:#000000;stroke-width:1;"/><text fill="#000000" font-family="sans-serif" font-size="13" lengthAdjust="spacing" textLength="55.0278" x="807.34" y="1234.1269">contains</text><text fill="#000000" font-family="sans-serif" font-size="13" lengthAdjust="spacing" textLength="8.271" x="785.0925" y="1211.1462">1</text><text fill="#000000" font-family="sans-serif" font-size="13" lengthAdjust="spacing" textLength="23.0356" x="769.5687" y="1257.156">0..*</text></g><!--link BankService to User--><g class="link" data-entity-1="ent0009" data-entity-2="ent0003" data-link-type="dependency" data-source-line="106" id="lnk13"><path codeLine="106" d="M401.48,559.8 C414.02,593.59 424.7415,622.4452 436.2815,653.5252" fill="none" id="BankService-to-User" style="stroke:#181818;stroke-width:1;"/><polygon fill="#181818" points="438.37,659.15,438.9871,649.3205,436.6296,654.4627,431.4874,652.1051,438.37,659.15" style="stroke:#181818;stroke-width:1;"/><polygon fill="#000000" points="423.0805,604.7837,422.6871,595.2813,417.1768,597.3273,423.0805,604.7837" style="stroke:#000000;stroke-width:1;"/><text fill="#000000" font-family="sans-serif" font-size="13" lengthAdjust="spacing" textLength="59.8584" x="430.34" y="604.5969">manages</text><text fill="#000000" font-family="sans-serif" font-size="13" lengthAdjust="spacing" textLength="8.271" x="396.1072" y="579.7414">1</text><text fill="#000000" font-family="sans-serif" font-size="13" lengthAdjust="spacing" textLength="23.0356" x="411.9458" y="648.4367">0..*</text></g><!--link BankService to Account--><g class="link" data-entity-1="ent0009" data-entity-2="ent0006" data-link-type="dependency" data-source-line="107" id="lnk14"><path codeLine="107" d="M607.85,559.79 C620.18,567.82 632.39,575.76 644.34,583.53 C666.98,598.25 680.02,594.3 695.34,616.53 C766.31,719.56 787.0973,858.0492 792.6173,957.4392" fill="none" id="BankService-to-Account" style="stroke:#181818;stroke-width:1;"/><polygon fill="#181818" points="792.95,963.43,796.4448,954.222,792.6727,958.4377,788.4571,954.6657,792.95,963.43" style="stroke:#181818;stroke-width:1;"/><polygon fill="#000000" points="792.4469,777.7608,791.3007,768.3196,785.9702,770.7964,792.4469,777.7608" style="stroke:#000000;stroke-width:1;"/><text fill="#000000" font-family="sans-serif" font-size="13" lengthAdjust="spacing" textLength="59.8584" x="799.34" y="777.7269">manages</text><text fill="#000000" font-family="sans-serif" font-size="13" lengthAdjust="spacing" textLength="8.271" x="611.1835" y="579.731">1</text><text fill="#000000" font-family="sans-serif" font-size="13" lengthAdjust="spacing" textLength="23.0356" x="769.1895" y="952.7174">0..*</text></g><!--link BankService to Operation--><g class="link" data-entity-1="ent0009" data-entity-2="ent0007" data-link-type="dependency" data-source-line="108" id="lnk15"><path codeLine="108" d="M211.93,559.96 C202.48,578.53 194.03,597.56 187.34,616.53 C102.31,857.52 6,990.48 164.34,1191.06 C227.5,1271.07 505.0394,1327.0872 669.0694,1354.0372" fill="none" id="BankService-to-Operation" style="stroke:#181818;stroke-width:1;"/><polygon fill="#181818" points="674.99,1355.01,666.7576,1349.6038,670.0561,1354.1994,665.4606,1357.498,674.99,1355.01" style="stroke:#181818;stroke-width:1;"/><polygon fill="#000000" points="92.8346,929.6997,90.8689,920.3945,85.7748,923.327,92.8346,929.6997" style="stroke:#000000;stroke-width:1;"/><text fill="#000000" font-family="sans-serif" font-size="13" lengthAdjust="spacing" textLength="59.8584" x="99.34" y="929.8669">manages</text><text fill="#000000" font-family="sans-serif" font-size="13" lengthAdjust="spacing" textLength="8.271" x="198.9583" y="579.3244">1</text><text fill="#000000" font-family="sans-serif" font-size="13" lengthAdjust="spacing" textLength="23.0356" x="644.4842" y="1350.5756">0..*</text></g><!--link BankService to Admin--><g class="link" data-entity-1="ent0009" data-entity-2="ent0004" data-link-type="dependency" data-source-line="109" id="lnk16"><path codeLine="109" d="M238.85,559.77 C231.75,578.53 225.68,597.65 221.34,616.53 C194.43,733.59 180.45,773.85 221.34,886.8 C240.08,938.57 275.5542,981.9306 310.4842,1016.4806" fill="none" id="BankService-to-Admin" style="stroke:#181818;stroke-width:1;"/><polygon fill="#181818" points="314.75,1020.7,311.1642,1011.5271,311.1952,1017.1839,305.5384,1017.2148,314.75,1020.7" style="stroke:#181818;stroke-width:1;"/><polygon fill="#000000" points="227.1148,778.166,228.6166,768.7748,222.8098,769.6856,227.1148,778.166" style="stroke:#000000;stroke-width:1;"/><text fill="#000000" font-family="sans-serif" font-size="13" lengthAdjust="spacing" textLength="29.7832" x="235.34" y="777.7269">uses</text><text fill="#000000" font-family="sans-serif" font-size="13" lengthAdjust="spacing" textLength="8.271" x="226.6163" y="579.7102">1</text></g><!--link Test to BankService--><g class="link" data-entity-1="ent0010" data-entity-2="ent0009" data-link-type="dependency" data-source-line="111" id="lnk17"><path codeLine="111" d="M753.28,71.48 C697.59,82.74 629.66,101.9 575.34,133.89 C543.86,152.43 518.1301,172.1126 490.4701,197.5026" fill="none" id="Test-to-BankService" style="stroke:#181818;stroke-width:1;"/><polygon fill="#181818" points="486.05,201.56,495.3851,198.4207,489.7334,198.1788,489.9753,192.5272,486.05,201.56" style="stroke:#181818;stroke-width:1;"/><polygon fill="#000000" points="575.8315,144.6183,585.2582,143.3574,582.7167,138.0574,575.8315,144.6183" style="stroke:#000000;stroke-width:1;"/><text fill="#000000" font-family="sans-serif" font-size="13" lengthAdjust="spacing" textLength="90.7524" x="589.34" y="146.9569">creates / uses</text></g><!--link Test to Admin--><g class="link" data-entity-1="ent0010" data-entity-2="ent0004" data-link-type="dependency" data-source-line="112" id="lnk18"><path codeLine="112" d="M858.37,104.17 C858.44,279.59 858.25,878.92 852.34,886.8 C780.49,982.49 705.19,918.71 594.34,963.8 C554.82,979.87 518.2133,998.0063 482.0033,1017.4963" fill="none" id="Test-to-Admin" style="stroke:#181818;stroke-width:1;"/><polygon fill="#181818" points="476.72,1020.34,486.5408,1019.5966,481.1227,1017.9702,482.7491,1012.5522,476.72,1020.34" style="stroke:#181818;stroke-width:1;"/><polygon fill="#000000" points="860.435,604.7193,866.5984,597.4762,861.1639,595.2367,860.435,604.7193" style="stroke:#000000;stroke-width:1;"/><text fill="#000000" font-family="sans-serif" font-size="13" lengthAdjust="spacing" textLength="48.3247" x="871.34" y="604.5969">creates</text></g><!--link Test to User--><g class="link" data-entity-1="ent0010" data-entity-2="ent0003" data-link-type="dependency" data-source-line="113" id="lnk19"><path codeLine="113" d="M809.1,104.15 C794.58,120.37 779.8,139.37 769.34,158.89 C676.85,331.43 746.89,412.12 652.34,583.53 C637.78,609.92 622.7095,631.0314 602.7195,654.5114" fill="none" id="Test-to-User" style="stroke:#181818;stroke-width:1;"/><polygon fill="#181818" points="598.83,659.08,607.71,654.8202,602.0713,655.2729,601.6185,649.6342,598.83,659.08" style="stroke:#181818;stroke-width:1;"/><polygon fill="#000000" points="772.5844,385.4581,778.5121,378.0208,773.0085,375.957,772.5844,385.4581" style="stroke:#000000;stroke-width:1;"/><text fill="#000000" font-family="sans-serif" font-size="13" lengthAdjust="spacing" textLength="48.3247" x="783.34" y="385.2769">creates</text></g><!--link Test to Account--><g class="link" data-entity-1="ent0010" data-entity-2="ent0006" data-link-type="dependency" data-source-line="114" id="lnk20"><path codeLine="114" d="M876.4,104.29 C879.48,113.97 882.33,124.17 884.34,133.89 C920.25,308.02 962.23,767.12 900.34,933.8 C896.62,943.81 894.8423,948.4476 889.5623,958.0876" fill="none" id="Test-to-Account" style="stroke:#181818;stroke-width:1;"/><polygon fill="#181818" points="886.68,963.35,894.5117,957.378,889.0819,958.9647,887.4952,953.5349,886.68,963.35" style="stroke:#181818;stroke-width:1;"/><polygon fill="#000000" points="935.4171,605.0958,938.2162,596.0065,932.3391,596.0971,935.4171,605.0958" style="stroke:#000000;stroke-width:1;"/><text fill="#000000" font-family="sans-serif" font-size="13" lengthAdjust="spacing" textLength="48.3247" x="944.34" y="604.5969">creates</text></g><!--link Test to Operation--><g class="link" data-entity-1="ent0010" data-entity-2="ent0007" data-link-type="dependency" data-source-line="115" id="lnk21"><path codeLine="115" d="M909.02,104.38 C965.61,163.33 1049.34,269.22 1049.34,379.71 C1049.34,379.71 1049.34,379.71 1049.34,1078.43 C1049.34,1169.48 983.406,1242.3562 916.336,1294.5262" fill="none" id="Test-to-Operation" style="stroke:#181818;stroke-width:1;"/><polygon fill="#181818" points="911.6,1298.21,921.1598,1295.8415,915.5466,1295.1401,916.248,1289.5269,911.6,1298.21" style="stroke:#181818;stroke-width:1;"/><polygon fill="#000000" points="1054.3707,778.2263,1057.254,769.1633,1051.3763,769.1995,1054.3707,778.2263" style="stroke:#000000;stroke-width:1;"/><text fill="#000000" font-family="sans-serif" font-size="13" lengthAdjust="spacing" textLength="48.3247" x="1063.34" y="777.7269">creates</text></g><?plantuml-src hLPRJzim57xFhx3wicuhZBqYLYb0DQ85YaZP7gOzkF6XM2Hs5BkjDiP_tt7YN9euLH7hK-tpdVivdwEUkCXeJbCI9rGfN-kSBzSQWbYAYFy1Sk9vxyWNruzSpozdOKHk_Ojl_jUP6-Hv6OsVw0f8AXaaYZnxNk69t2l8yKJmTqJMU0WOEIKH-XUhrgsWANJlCzJVoho7Ts4XfJpf6NYK0cxMwH93w8WeOpbWU9thHAvMm0A1zqif4w32AoGVZOIBSI_KIJ_AzotbMbUkzRWlO5nb2Vrz2xcIWYQ1U905QYCvyrwg4leivQAk8JMdVX4PO7zr2aBtKerZp3I43PW2SQ7VbXA6LVJqxE_HKHbQ7MSSopNwVsuScxEx0KkQK14RhqokbmdiwYn-P-38muWYJVMwrxWu1wg1-IRxKCOqkSJZWgSTkrSoOKKi9WKhaXdaL7CfZD6GAtqshswcLQbmNEhBSQs0-FgsRbkfa4CgD-3G2VOE2dglTTIuOzDEYotpmB3KwdKRNAwx8cUzqwARxWQvcyf0nJdFR6tShanZ1ffaPy9_q8LfwzTcpzKbP59nrnvnzOFhHvRJBKs6rwpfHhjiByFC5ytklWSNiuEv3sTgmt7P6lOxf-8fAc-xQs6cxOggnskQdLMBPrixTKrc5ziQqeP6NK0pwjCsUI36xcqrt7W8ty1lbG4toUMmmh66tCHHEB3hrqSQuUlYgDUuM55Rlh6jiCcp_ESO2KX0GqUXCzIkH0-X0PUdrp81ixFkZcpINSw9S_NwPhTsJVwttGs7xNcvlNkAsIAIKiMqRx_QX7GcPiU6uKi_IOOfqm2CPWjne9y-xnQxZ8yFckInEfH35hDeGJwHQp-u8HUX7qL3958InW9Kyu2gc0fH1bd-gtcoOPNJDiTK6uqVGs9CyrNpJFxyrOvtADYxMUWlWlbDT1NS3WPQlFwZpoE2x__evFZumwX--K-9t29PJRtgOXSsRsqCVdXgZDA0lJPBbXhJIkM-x4fA1HAi0U_1Db4S16z7ir_1jwo98rB4MpJ92Cvt6b5-WoZijWNMkCf0XMY9R88EIPEEGxXJoahy3m00?></g></svg>